<svg width="221" height="61" viewBox="0 0 221 61" fill="none" xmlns="http://www.w3.org/2000/svg">
<path d="M201.108 23V11.8H202.484V23H201.108ZM197.636 13.112V11.8H205.94V13.112H197.636ZM213.114 23L213.13 22.664L217.77 11.8H219.066V12.136L214.426 23H213.114ZM208.058 23V11.8H209.418V23H208.058ZM213.13 23L208.474 12.136V11.8H209.786L214.426 22.664V23H213.13ZM218.122 23V11.8H219.482V23H218.122Z" fill="white"/>
<path d="M0.00700599 37.9201C-0.0569683 37.3857 0.324328 36.9007 0.858666 36.8367L35.1853 32.772L43.7527 31.746L71.6817 28.4526C72.216 28.3886 72.7011 28.7699 72.7651 29.3042L73.3443 34.1419C73.4082 34.6762 73.0269 35.1613 72.4926 35.2253L43.6678 38.6259L30.2739 40.23L1.6696 43.6094C1.13524 43.6734 0.650177 43.2921 0.5862 42.7577L0.00700599 37.9201Z" fill="white"/>
<path d="M16.8399 7.95384C16.5804 7.48237 16.7523 6.88979 17.2237 6.63029L21.4923 4.28084C21.9638 4.02134 22.5564 4.19317 22.8159 4.66463L33.5142 23.5175C33.7737 23.989 33.6019 24.5816 33.1304 24.8411L28.8618 27.1906C28.3904 27.4501 27.7978 27.2782 27.5383 26.8068L16.8399 7.95384ZM36.3903 39.5505C36.1307 39.079 36.3026 38.4864 36.7741 38.2269L41.0427 35.8775C41.5141 35.618 42.1067 35.7898 42.3662 36.2613L43.6678 38.6259L53.3727 56.2572C53.6322 56.7287 53.4603 57.3212 52.9889 57.5808L48.7203 59.9302C48.2488 60.1897 47.6562 60.0179 47.3967 59.5464L37.5561 41.6686L36.3903 39.5505Z" fill="white"/>
<path d="M56.4732 1.75439C56.9778 1.94144 57.2352 2.50215 57.0482 3.00676L56.2015 5.29086L55.8624 6.19844C52.5113 15.0853 48.4517 23.6241 43.7527 31.746C41.7964 35.1274 39.7292 38.4366 37.5561 41.6686C34.7898 45.783 31.852 49.7722 28.7529 53.626C28.4467 54.0068 27.8837 54.0506 27.5205 53.7238L23.713 50.2987C23.3751 49.9948 23.3345 49.4797 23.6187 49.1251C25.9329 46.2371 28.1528 43.2705 30.2739 40.23C31.9754 37.7908 33.6134 35.304 35.1853 32.772C41.0038 23.3998 45.9177 13.4085 49.8055 2.92016L50.6525 0.635913C50.8396 0.13136 51.4003 -0.126019 51.9049 0.0610166L56.4732 1.75439Z" fill="white"/>
<path d="M94.8304 37.0254L83.2402 19.9943V19.3111H85.7708L97.3863 36.3421V37.0254H94.8304ZM83.2402 37.0254V19.3111H85.7708V37.0254H83.2402ZM94.8304 37.0254V19.3111H97.3863V37.0254H94.8304ZM106.191 37.3797C104.926 37.3797 103.804 37.1013 102.826 36.5446C101.864 35.971 101.113 35.178 100.573 34.1658C100.033 33.1535 99.7635 31.981 99.7635 30.6482C99.7635 29.3154 100.025 28.1514 100.548 27.156C101.088 26.1437 101.83 25.3592 102.775 24.8025C103.737 24.2289 104.842 23.9421 106.09 23.9421C107.322 23.9421 108.393 24.2289 109.304 24.8025C110.232 25.3761 110.949 26.1859 111.455 27.2319C111.978 28.261 112.239 29.4673 112.239 30.8507V31.2303L111.86 31.6099H101.054V29.3829H111.025L109.734 29.8891C109.7 29.1299 109.515 28.4803 109.177 27.9405C108.857 27.4006 108.427 26.9873 107.887 26.7005C107.364 26.3968 106.773 26.245 106.115 26.245C105.407 26.245 104.757 26.4137 104.167 26.7511C103.576 27.0885 103.112 27.5609 102.775 28.1682C102.454 28.7587 102.294 29.4504 102.294 30.2433V31.0025C102.294 31.7786 102.463 32.4787 102.8 33.1029C103.138 33.7103 103.602 34.1911 104.192 34.5454C104.783 34.8997 105.449 35.0768 106.191 35.0768C106.9 35.0768 107.524 34.8997 108.064 34.5454C108.621 34.1742 109.059 33.685 109.38 33.0776H109.684L111.733 33.9633C111.244 35.0262 110.519 35.8613 109.557 36.4687C108.595 37.076 107.473 37.3797 106.191 37.3797ZM125.888 24.2964V37.0254H123.484V33.6091L124.167 33.8115C123.914 34.537 123.535 35.1696 123.028 35.7095C122.522 36.2325 121.923 36.6458 121.232 36.9495C120.557 37.2363 119.823 37.3797 119.03 37.3797C118.136 37.3797 117.326 37.1857 116.601 36.7976C115.875 36.3927 115.302 35.8107 114.88 35.0515C114.458 34.2755 114.247 33.3223 114.247 32.1919V24.2964H116.778V31.4833C116.778 32.3269 116.896 33.0101 117.132 33.5331C117.385 34.0561 117.731 34.4357 118.17 34.6719C118.608 34.8912 119.114 35.0009 119.688 35.0009C120.262 35.0009 120.827 34.8575 121.383 34.5707C121.957 34.2839 122.429 33.8368 122.801 33.2295C123.172 32.6221 123.357 31.8376 123.357 30.876V24.2964H125.888ZM128.695 37.0254V24.2964H131.099V27.7127L130.416 27.485C130.754 26.5065 131.327 25.7304 132.137 25.1568C132.964 24.5832 133.908 24.2964 134.971 24.2964H136.211V26.6246H134.566C133.892 26.6246 133.301 26.7848 132.795 27.1054C132.306 27.409 131.918 27.8393 131.631 28.396C131.361 28.9527 131.226 29.6107 131.226 30.3699V37.0254H128.695ZM141.034 37.3797C140.173 37.3797 139.397 37.211 138.706 36.8736C138.031 36.5361 137.499 36.0722 137.111 35.4817C136.723 34.8744 136.529 34.1827 136.529 33.4066C136.529 32.2425 136.934 31.3146 137.744 30.6229C138.554 29.9144 139.701 29.501 141.186 29.3829L146.095 28.978V31.1544L141.616 31.5086C140.755 31.5761 140.123 31.7617 139.718 32.0654C139.313 32.3691 139.11 32.7824 139.11 33.3054C139.11 33.8115 139.33 34.2333 139.768 34.5707C140.207 34.8912 140.764 35.0515 141.439 35.0515C142.147 35.0515 142.788 34.8828 143.362 34.5454C143.952 34.208 144.416 33.7609 144.754 33.2042C145.091 32.6306 145.26 32.0148 145.26 31.3568V29.2817C145.26 28.3876 144.973 27.6537 144.399 27.0801C143.843 26.5065 143.1 26.2197 142.172 26.2197C141.396 26.2197 140.747 26.4052 140.224 26.7764C139.718 27.1475 139.38 27.6368 139.212 28.2442H138.933L136.757 27.6368C137.094 26.5065 137.735 25.6039 138.68 24.929C139.625 24.2542 140.789 23.9168 142.172 23.9168C143.944 23.9168 145.319 24.4398 146.297 25.4858C147.276 26.5149 147.765 27.9658 147.765 29.8384V37.0254H145.437V33.3307L146.348 33.6091C146.146 34.3008 145.783 34.9334 145.26 35.507C144.754 36.0806 144.138 36.5361 143.412 36.8736C142.687 37.211 141.894 37.3797 141.034 37.3797ZM150.842 37.0254V18.8049L153.297 18.5013L153.373 18.7037V37.0254H150.842ZM168.03 37.0254L161.627 19.8425L161.476 19.3111H164.006L170.738 36.8229V37.0254H168.03ZM154.744 37.0254V36.8229L161.476 19.3111H164.006L163.804 19.8425L157.401 37.0254H154.744ZM157.528 32.6474L158.287 30.218H167.423L168.182 32.6474H157.528ZM171.97 37.0254V24.2964H174.374V27.7127L173.691 27.485C174.028 26.5065 174.602 25.7304 175.412 25.1568C176.238 24.5832 177.183 24.2964 178.246 24.2964H179.486V26.6246H177.841C177.166 26.6246 176.576 26.7848 176.07 27.1054C175.58 27.409 175.192 27.8393 174.905 28.396C174.635 28.9527 174.501 29.6107 174.501 30.3699V37.0254H171.97ZM186.156 37.3797C184.873 37.3797 183.743 37.1013 182.765 36.5446C181.786 35.971 181.018 35.178 180.462 34.1658C179.922 33.1535 179.652 31.981 179.652 30.6482C179.652 29.3154 179.922 28.1514 180.462 27.156C181.018 26.1437 181.786 25.3592 182.765 24.8025C183.743 24.2289 184.873 23.9421 186.156 23.9421C187.151 23.9421 188.037 24.1108 188.813 24.4482C189.606 24.7856 190.281 25.2833 190.837 25.9413C191.394 26.5824 191.807 27.3753 192.077 28.3201L189.926 28.9274H189.648C189.378 28.1007 188.922 27.4512 188.281 26.9788C187.657 26.5065 186.949 26.2703 186.156 26.2703C185.346 26.2703 184.646 26.4558 184.055 26.827C183.465 27.1982 183.001 27.7127 182.663 28.3707C182.343 29.0118 182.183 29.771 182.183 30.6482C182.183 31.5255 182.343 32.2931 182.663 32.9511C183.001 33.6091 183.465 34.1236 184.055 34.4948C184.646 34.8491 185.346 35.0262 186.156 35.0262C186.729 35.0262 187.252 34.925 187.725 34.7225C188.197 34.5201 188.602 34.2248 188.939 33.8368C189.294 33.4319 189.564 32.9511 189.749 32.3944H190.027L192.204 33.0017C191.9 33.9465 191.461 34.7478 190.888 35.4058C190.314 36.0638 189.631 36.5614 188.838 36.8989C188.062 37.2194 187.168 37.3797 186.156 37.3797Z" fill="white"/>
</svg>
